<?xml version="1.0" encoding="UTF-8"?>
<svg id="_图层_1" data-name="图层 1" xmlns="http://www.w3.org/2000/svg" viewBox="171.92 75.18 224 224">
  <defs>
    <style>
      .cls-1 {
        fill: #e8362d;
      }

      .cls-2 {
        fill: #fff;
      }

      .cls-4 {
        fill: #050000;
      }

      .cls-5 {
        fill: #1b1b1b;
      }
    </style>
  </defs>
  <rect class="cls-4" x="171.92" y="75.18" width="224" height="224" rx="45" ry="45"/>
  <rect class="cls-2" x="231.69" y="135.2" width="104.1" height="104.1" rx="52.05" ry="52.05"/>
  <circle class="cls-5" cx="283.74" cy="187.25" r="41.81"/>
  <circle class="cls-2" cx="292.35" cy="180.73" r="9.87"/>
  <path class="cls-2" d="M351.88,152.29h-6.08c0-14.85-12.04-26.89-26.89-26.89v-6.08c14.85,0,26.89-12.04,26.89-26.89h6.08c0,14.85,12.04,26.89,26.89,26.89v6.08c-14.85,0-26.89,12.04-26.89,26.89Z"/>
  <path class="cls-1" d="M378.41,152.19v70.59c0,32.66-26.47,59.14-59.14,59.14h-71.06c-32.66,0-59.14-26.48-59.14-59.14v-71.06c0-32.66,26.47-59.13,59.14-59.13h70.69v32.76h-71.43c-14.17,0-25.65,11.48-25.65,25.64v72.53c0,14.16,11.48,25.64,25.65,25.64h72.52c14.16,0,25.65-11.48,25.65-25.64v-71.32h32.76Z"/>
</svg>
