<?xml version="1.0" encoding="UTF-8"?>
<svg id="_图层_1" data-name="图层 1" xmlns="http://www.w3.org/2000/svg" viewBox="0 0 566.6 478.4">
  <defs>
    <style>
      .cls-1 {
        fill: #e8362d;
      }

      .cls-2 {
        fill: #fff;
      }

      .cls-3 {
        fill: #f4f4f4;
        font-family: SourceHanSansCN-Light-GBpc-EUC-H, 'Source Han Sans CN';
        font-size: 100px;
        font-weight: 300;
        letter-spacing: .01em;
      }

      .cls-4 {
        fill: #050000;
      }

      .cls-5 {
        fill: #1b1b1b;
      }
    </style>
  </defs>
  <g>
    <path class="cls-2" d="M134.26,329.5v10.01h-28.59v11.6h26.24v9.25h-26.24v13.27h29.2v10.01h-41.1v-54.15h40.5Z"/>
    <path class="cls-2" d="M152,370.3c.66,1.26,1.53,2.29,2.62,3.07,1.09.79,2.36,1.37,3.83,1.74,1.46.38,2.98.57,4.55.57,1.06,0,2.2-.09,3.41-.27,1.21-.18,2.35-.52,3.41-1.02,1.06-.5,1.95-1.2,2.65-2.09.71-.88,1.06-2.01,1.06-3.38,0-1.47-.47-2.65-1.4-3.56-.94-.91-2.16-1.67-3.68-2.27-1.52-.61-3.23-1.14-5.16-1.59s-3.87-.96-5.84-1.52c-2.02-.5-3.99-1.12-5.91-1.86-1.92-.73-3.64-1.68-5.16-2.84-1.52-1.16-2.74-2.62-3.68-4.36s-1.4-3.85-1.4-6.33c0-2.78.59-5.2,1.78-7.24s2.74-3.75,4.66-5.12,4.1-2.38,6.52-3.03c2.43-.66,4.85-.99,7.28-.99,2.83,0,5.55.32,8.15.95,2.6.63,4.92,1.66,6.94,3.07,2.02,1.42,3.63,3.22,4.82,5.42,1.19,2.2,1.78,4.87,1.78,8h-11.53c-.1-1.62-.44-2.96-1.02-4.02-.58-1.06-1.35-1.9-2.31-2.5-.96-.61-2.06-1.04-3.3-1.29-1.24-.25-2.59-.38-4.06-.38-.96,0-1.92.1-2.88.3-.96.2-1.83.56-2.62,1.06-.79.51-1.43,1.14-1.93,1.9-.51.76-.76,1.72-.76,2.88,0,1.06.2,1.92.61,2.58s1.2,1.26,2.39,1.82c1.19.56,2.83,1.11,4.93,1.67,2.1.56,4.84,1.26,8.23,2.12,1.01.2,2.41.57,4.21,1.1,1.79.53,3.58,1.38,5.35,2.54,1.77,1.16,3.3,2.72,4.59,4.66,1.29,1.95,1.93,4.44,1.93,7.47,0,2.48-.48,4.78-1.44,6.9-.96,2.12-2.39,3.96-4.29,5.5-1.89,1.54-4.25,2.74-7.05,3.6-2.8.86-6.05,1.29-9.74,1.29-2.98,0-5.88-.37-8.68-1.1-2.81-.73-5.29-1.88-7.43-3.45-2.15-1.57-3.86-3.56-5.12-5.99-1.27-2.43-1.87-5.31-1.82-8.65h11.53c0,1.82.33,3.36.98,4.63Z"/>
    <path class="cls-2" d="M216.54,329.5c3.39,0,6.27.49,8.65,1.48,2.38.99,4.31,2.29,5.8,3.91,1.49,1.62,2.58,3.46,3.26,5.54.68,2.07,1.02,4.22,1.02,6.45s-.34,4.31-1.02,6.41c-.68,2.1-1.77,3.96-3.26,5.57-1.49,1.62-3.43,2.92-5.8,3.91-2.38.99-5.26,1.48-8.65,1.48h-12.51v19.42h-11.91v-54.15h24.42ZM213.28,354.98c1.37,0,2.68-.1,3.94-.3,1.26-.2,2.38-.59,3.34-1.17.96-.58,1.73-1.4,2.31-2.46s.87-2.45.87-4.17-.29-3.11-.87-4.17c-.58-1.06-1.35-1.88-2.31-2.46-.96-.58-2.07-.97-3.34-1.17s-2.58-.3-3.94-.3h-9.25v16.23h9.25Z"/>
    <path class="cls-2" d="M240.63,362.63h18.76v6.96h-18.76v-6.96Z"/>
    <path class="cls-1" d="M278.72,383.64l-16.18-46.95h6.58l13.15,40.7h.13l13.28-40.7h6.38l-16.37,46.95h-6.96Z"/>
    <path class="cls-1" d="M314.18,336.7v46.95h-6.12v-46.95h6.12Z"/>
    <path class="cls-1" d="M348.37,343.11c-2.04-1.51-4.65-2.27-7.83-2.27-1.29,0-2.56.13-3.8.39s-2.35.7-3.32,1.32c-.97.61-1.74,1.44-2.32,2.47-.58,1.03-.87,2.31-.87,3.85,0,1.45.42,2.62,1.26,3.52s1.96,1.63,3.35,2.2c1.4.57,2.98,1.04,4.74,1.41,1.76.37,3.56.78,5.38,1.22,1.83.44,3.62.95,5.38,1.55s3.34,1.39,4.74,2.4c1.4,1.01,2.51,2.28,3.35,3.81.84,1.54,1.26,3.46,1.26,5.79,0,2.5-.55,4.64-1.64,6.41s-2.5,3.22-4.22,4.34c-1.72,1.12-3.64,1.93-5.77,2.43-2.13.5-4.24.76-6.35.76-2.58,0-5.02-.33-7.32-.99-2.3-.66-4.32-1.65-6.06-2.99-1.74-1.34-3.12-3.05-4.12-5.13-1.01-2.08-1.52-4.55-1.52-7.4h5.8c0,1.97.38,3.67,1.13,5.1s1.74,2.6,2.96,3.52c1.22.92,2.65,1.6,4.29,2.04,1.63.44,3.31.66,5.03.66,1.38,0,2.76-.13,4.16-.39,1.4-.26,2.65-.71,3.77-1.35,1.12-.63,2.02-1.5,2.71-2.6.69-1.09,1.03-2.5,1.03-4.21,0-1.62-.42-2.94-1.26-3.94s-1.96-1.83-3.35-2.47-2.97-1.15-4.74-1.55c-1.76-.39-3.56-.8-5.38-1.22-1.83-.42-3.62-.9-5.38-1.45-1.76-.55-3.34-1.27-4.74-2.17s-2.51-2.06-3.35-3.49c-.84-1.42-1.26-3.21-1.26-5.36,0-2.37.47-4.42,1.42-6.15.95-1.73,2.2-3.16,3.77-4.27,1.57-1.12,3.35-1.95,5.35-2.5,2-.55,4.05-.82,6.16-.82,2.36,0,4.55.29,6.58.85,2.02.57,3.79,1.47,5.32,2.7,1.52,1.23,2.73,2.77,3.61,4.63.88,1.86,1.36,4.09,1.45,6.67h-5.8c-.34-3.38-1.54-5.82-3.58-7.33Z"/>
    <path class="cls-1" d="M374.32,336.7v46.95h-6.12v-46.95h6.12Z"/>
    <path class="cls-1" d="M384.28,350.93c.92-2.96,2.31-5.58,4.16-7.86,1.85-2.28,4.15-4.1,6.9-5.46,2.75-1.36,5.95-2.04,9.61-2.04s6.85.68,9.6,2.04c2.75,1.36,5.05,3.18,6.9,5.46,1.85,2.28,3.23,4.9,4.16,7.86.92,2.96,1.38,6.04,1.38,9.24s-.46,6.28-1.38,9.24c-.93,2.96-2.31,5.58-4.16,7.86-1.85,2.28-4.15,4.09-6.9,5.42-2.75,1.34-5.95,2-9.6,2s-6.86-.67-9.61-2c-2.75-1.34-5.05-3.15-6.9-5.42-1.85-2.28-3.23-4.9-4.16-7.86-.93-2.96-1.39-6.04-1.39-9.24s.46-6.28,1.39-9.24ZM389.92,367.17c.6,2.3,1.55,4.37,2.84,6.21,1.29,1.84,2.94,3.32,4.96,4.44,2.02,1.12,4.43,1.68,7.22,1.68s5.2-.56,7.22-1.68c2.02-1.12,3.67-2.6,4.96-4.44,1.29-1.84,2.23-3.91,2.84-6.21.6-2.3.9-4.64.9-7s-.3-4.7-.9-7c-.6-2.3-1.55-4.37-2.84-6.21-1.29-1.84-2.95-3.32-4.96-4.44s-4.43-1.68-7.22-1.68-5.2.56-7.22,1.68-3.67,2.6-4.96,4.44-2.24,3.91-2.84,6.21c-.6,2.3-.9,4.63-.9,7s.3,4.7.9,7Z"/>
    <path class="cls-1" d="M441.75,336.7l24.24,38.07h.13v-38.07h5.8v46.95h-6.7l-24.04-37.68h-.13v37.68h-5.8v-46.95h6.51Z"/>
  </g>
  <rect class="cls-2" x="231.69" y="135.2" width="104.1" height="104.1" rx="52.05" ry="52.05"/>
  <circle class="cls-5" cx="283.74" cy="187.25" r="41.81"/>
  <circle class="cls-2" cx="292.35" cy="180.73" r="9.87"/>
  <path class="cls-2" d="M351.88,152.29h-6.08c0-14.85-12.04-26.89-26.89-26.89v-6.08c14.85,0,26.89-12.04,26.89-26.89h6.08c0,14.85,12.04,26.89,26.89,26.89v6.08c-14.85,0-26.89,12.04-26.89,26.89Z"/>
  <path class="cls-1" d="M378.41,152.19v70.59c0,32.66-26.47,59.14-59.14,59.14h-71.06c-32.66,0-59.14-26.48-59.14-59.14v-71.06c0-32.66,26.47-59.13,59.14-59.13h70.69v32.76h-71.43c-14.17,0-25.65,11.48-25.65,25.64v72.53c0,14.16,11.48,25.64,25.65,25.64h72.52c14.16,0,25.65-11.48,25.65-25.64v-71.32h32.76Z"/>
</svg>